<svg id="three" width="549" height="628" viewBox="0 0 549 628" fill="none" xmlns="http://www.w3.org/2000/svg">
<path d="M246.103 0.688796C231.157 3.98487 217.918 16.0944 208.168 35.2976C200.908 49.5567 198.275 59.8031 198.346 73.7756C198.417 87.4615 202.331 99.6426 211.015 112.755C218.061 123.36 226.957 131.242 238.274 136.903C241.05 138.264 243.256 139.554 243.256 139.769C243.256 139.984 242.615 142.635 241.904 145.644C238.914 157.539 239.341 168.359 243.114 175.811C245.249 180.181 247.597 182.259 251.156 182.976C253.291 183.406 253.647 183.764 253.932 186.272C254.145 187.848 254.003 189.855 253.647 190.715C253.22 191.861 253.291 193.007 253.861 194.226C254.572 195.802 254.501 196.017 253.434 195.659C246.245 193.509 244.395 193.581 233.292 196.375C224.68 198.596 219.199 198.596 212.153 196.304C206.032 194.369 197.136 189.568 192.225 185.484C185.819 180.181 178.631 168.932 176.069 160.19C174.788 155.819 174.574 147.579 175.642 144.784C176.567 142.277 179.343 140.629 181.62 141.202C182.688 141.417 185.321 143.28 187.456 145.214C192.296 149.729 192.438 149.084 187.67 143.996C182.19 138.192 178.204 137.404 174.503 141.56C169.663 147.006 170.588 161.408 176.353 173.088C182.688 185.842 191.656 194.441 206.175 201.821C215.854 206.693 224.68 207.768 237.989 205.475C245.035 204.257 245.249 204.329 249.021 205.762C252.01 206.908 252.935 207.553 253.078 208.915C253.22 209.846 253.647 210.921 254.003 211.279C254.928 212.282 254.786 214.862 253.789 215.865C253.149 216.51 253.22 217.37 253.932 219.591C254.715 222.027 254.715 222.744 253.932 224.32C253.149 225.753 253.078 226.398 253.789 227.473C254.857 229.193 254.928 231.557 253.932 232.13C253.576 232.345 253.22 233.348 253.22 234.28C253.22 235.211 253.576 236.215 253.932 236.43C254.359 236.645 254.644 238.078 254.644 239.582C254.644 241.732 254.359 242.449 253.22 242.735C251.014 243.308 250.587 246.604 252.508 248.682C253.434 249.614 254.074 250.474 253.861 250.617C250.943 253.053 240.765 260.434 240.267 260.434C239.982 260.434 239.697 268.459 239.697 278.275V296.046L243.469 296.547C247.953 297.12 262.188 297.12 267.028 296.475L270.444 296.046L265.248 302.208C262.33 305.647 259.483 308.442 258.914 308.442C258.345 308.442 256.708 308.083 255.355 307.725C254.003 307.295 247.455 305.862 240.836 304.429C212.652 298.553 208.096 294.541 199.485 268.674C188.595 236 177.279 216.152 166.389 210.778C161.763 208.556 154.717 208.27 150.66 210.204C148.952 210.993 147.03 212.067 146.39 212.497C145.464 213.214 144.61 212.784 141.479 210.348C136.283 206.263 128.454 202.609 122.547 201.606C108.027 199.098 93.6506 207.338 85.8927 222.672C82.4052 229.623 82.2629 229.623 79.416 223.174C78.3484 220.809 77.8502 217.871 77.5655 212.354C77.0673 200.674 79.1313 193.222 88.8108 172.3C97.5651 153.24 99.9849 143.996 98.7038 133.463C97.4939 122.715 94.1488 116.338 86.3909 109.961C78.0637 103.082 66.5337 98.4961 57.5659 98.4961C42.0502 98.4961 21.0543 110.534 9.45308 126.011C-1.72106 141.058 -3.00217 157.969 5.68092 174.664C7.10438 177.387 10.1648 181.328 13.7235 184.839C21.2678 192.506 27.8868 195.945 39.7015 198.381C41.2673 198.668 41.4809 199.098 41.4809 201.821C41.6232 211.207 42.2638 217.441 43.1178 217.441C43.5449 217.441 43.9719 218.086 43.9719 218.874C43.9719 219.663 43.4737 220.308 42.9043 220.308C42.3349 220.308 41.8367 219.949 41.8367 219.448C41.8367 219.018 41.6944 218.803 41.4809 218.946C41.3385 219.161 41.552 220.308 41.9791 221.597C42.6196 223.317 42.6196 224.177 41.9079 225.538C41.125 226.971 41.125 227.76 41.9079 229.909C42.6908 231.987 42.6908 232.847 41.9791 233.922C40.9115 235.641 40.8403 238.006 41.8367 238.579C42.8331 239.152 42.762 241.517 41.6944 243.165C41.0538 244.24 41.0538 245.171 41.8367 247.464C42.4773 249.471 42.5485 250.617 42.0502 251.262C41.6232 251.764 41.2673 254.415 41.2673 257.066C41.2673 261.15 41.0538 262.153 39.8439 262.941C37.851 264.446 37.5664 266.453 39.061 268.745L40.3421 270.823L33.4383 275.266C29.6662 277.774 26.1075 279.78 25.6805 279.78C25.1823 279.78 24.7552 280.497 24.7552 281.357C24.7552 283.649 21.9795 312.598 21.5525 315.464C21.1966 317.183 21.3389 317.757 22.0507 317.685C22.5489 317.542 25.6805 317.9 29.0256 318.33C43.1178 320.408 53.6514 320.694 53.0109 318.903C52.7973 318.473 53.4379 310.233 54.3631 300.56L56.0001 283.005L54.3631 281.571C53.4379 280.783 50.4486 278.06 47.6017 275.553L42.5485 270.967L44.3278 268.889C46.463 266.381 46.463 266.094 44.7548 263.945C43.616 262.44 43.4737 261.652 44.1143 257.926C44.5413 254.988 44.4701 253.125 43.9719 251.764C43.3314 250.259 43.3314 249.184 44.0431 247.321C44.5413 245.888 44.6836 244.312 44.3278 243.523C43.9719 242.735 43.8296 241.374 43.9007 240.371C43.9719 239.367 44.1854 231.342 44.3989 222.457C44.6836 213.572 44.8972 204.615 44.9683 202.537C45.0395 199.17 45.1818 198.811 46.6053 198.811C49.5946 198.811 55.0037 196.518 57.3524 194.297C58.6335 193.007 60.6264 189.998 61.8363 187.633C64.5409 181.758 64.5409 180.181 61.7651 185.699C58.7047 191.789 54.4343 195.587 49.381 196.662C47.2459 197.092 45.0395 197.235 44.5413 196.948C44.1143 196.662 42.1214 196.375 40.1286 196.232C32.2996 195.945 23.1894 191.288 15.9298 184.051C8.67018 176.67 4.18629 167.499 3.04752 157.396C0.627647 136.114 21.6948 111.609 48.2423 104.873C55.4307 103.01 60.3417 103.297 66.676 105.876C77.2096 110.176 85.3945 116.839 88.9531 124.148C91.1595 128.662 91.3019 129.307 91.2307 136.473C91.1595 145.716 90.0919 149.012 80.7683 167.642C69.6653 190.07 67.1031 198.238 67.1031 212.067C67.1031 223.604 69.0248 229.264 76.142 238.723L78.9178 242.449L78.206 246.533C75.5015 261.079 79.5583 275.409 87.8856 280.568C91.5865 282.861 96.711 282.216 99.7003 278.992C100.981 277.702 101.337 277.129 100.554 277.774C99.7714 278.419 97.7786 279.279 96.0704 279.78C92.0848 280.783 88.7396 279.279 85.4657 274.908C81.8359 270.035 80.7683 265.163 81.1241 255.346C81.3377 250.76 81.6935 246.676 81.9782 246.246C82.2629 245.745 83.8999 246.461 86.5333 248.181C91.9424 251.692 97.3515 254.056 107.672 257.209C134.29 265.378 139.201 267.671 142.689 273.045C147.386 280.353 148.596 281.93 151.443 283.721C154.219 285.441 154.29 285.656 154.29 289.31C154.29 292.176 154.646 293.538 155.713 294.684C157.137 296.26 157.208 296.834 156.852 321.554C156.496 345.057 156.283 349.714 155.286 356.593C155.002 358.384 155.215 359.746 155.927 360.821C156.994 362.325 156.852 362.54 150.518 367.986C146.888 371.067 143.543 373.647 143.045 373.647C142.404 373.647 142.333 374.435 142.617 376.584L143.116 379.451L139.272 378.877C131.728 377.802 117.422 378.304 110.519 380.024C101.48 382.173 90.3054 387.977 79.2025 396.289C69.0959 403.884 63.4733 406.894 57.4948 408.04C54.0785 408.685 53.4379 408.614 52.7262 407.539C51.8721 406.392 51.7298 406.392 50.8757 407.61C49.9504 408.9 49.6657 408.9 43.9007 407.682C40.6268 407.037 36.0717 405.532 33.7942 404.314C19.9155 396.862 9.80894 374.005 14.364 360.247C16.2145 354.658 21.0543 349.069 26.4634 346.418C30.9473 344.197 31.3031 344.125 38.7763 344.412C47.5306 344.77 52.7262 346.346 58.0641 350.216C64.7544 355.017 67.6013 362.97 64.9679 369.777C63.3309 374.076 60.8399 376.943 55.7866 380.239C50.3775 383.75 51.4451 383.75 57.8506 380.239C65.8931 375.796 69.4518 369.706 68.6689 361.68C67.3166 348.424 52.228 338.608 34.2924 339.396C28.8121 339.611 27.1039 340.041 23.2606 341.904C7.88728 349.571 2.62049 363.185 7.74493 382.102C13.4388 403.025 26.0364 415.851 44.2566 419.362L50.4486 420.58L50.0216 423.589C49.7369 425.452 49.9504 427.1 50.4486 427.96C51.1604 429.107 51.1604 430.038 50.3775 432.403C49.5946 434.767 49.5946 435.699 50.2351 436.774C51.3027 438.422 51.3739 440.786 50.3775 441.359C49.4522 441.933 49.4522 445.802 50.3775 446.375C50.7333 446.59 51.0892 447.593 51.0892 448.525C51.0892 449.456 50.7333 450.459 50.3775 450.674C49.4522 451.248 49.4522 455.117 50.3775 455.69C51.3027 456.263 51.3027 459.416 50.3775 459.989C49.381 460.634 49.4522 463.644 50.5198 465.363C51.2315 466.51 51.2315 467.083 50.5198 468.23C49.9504 469.233 49.8081 471.167 50.0928 474.678C50.591 479.479 50.5198 479.766 48.6693 481.485C46.463 483.563 46.3206 485.426 48.2423 487.218C49.0252 487.934 49.6657 488.794 49.6657 489.081C49.6657 489.726 35.787 500.474 34.933 500.474C34.6483 500.474 34.2924 509.287 34.2924 520.035L34.1501 539.525H50.8045C59.9858 539.525 67.4589 539.31 67.4589 539.095C67.4589 538.808 68.0995 538.45 68.8824 538.235C70.1635 537.877 70.3059 537.16 70.4482 529.422C70.8041 515.019 70.3059 501.907 69.4518 501.907C69.0248 501.907 65.0391 499.184 60.5552 495.816L52.4415 489.654L53.9361 487.791C55.8578 485.283 55.7866 482.847 53.5802 481.414C52.1568 480.482 51.8009 479.694 51.8009 477.115C51.8009 475.467 52.0856 473.819 52.5127 473.604C53.4379 473.03 53.4379 469.878 52.5127 469.304C51.5874 468.731 51.5874 464.862 52.5127 464.289C53.4379 463.715 53.4379 460.563 52.5127 459.989C52.1568 459.774 51.8009 458.771 51.8009 457.84C51.8009 456.908 52.1568 455.905 52.5127 455.69C53.4379 455.117 53.4379 451.248 52.5127 450.674C51.5874 450.101 51.5874 446.948 52.5127 446.375C53.4379 445.802 53.4379 441.933 52.5127 441.359C51.5874 440.786 51.5874 437.633 52.5127 437.06C53.5091 436.487 53.4379 433.406 52.3703 431.686C51.7298 430.611 51.7298 429.966 52.4415 428.605C52.9397 427.673 53.2956 425.954 53.2244 424.807C52.9397 420.58 52.9397 420.58 57.7083 420.436C67.2454 420.007 73.5798 417.57 86.9603 408.757C103.899 397.722 111.017 395.429 125.465 396.146C130.162 396.361 135.927 397.006 138.276 397.436L142.546 398.367L142.262 406.034L142.048 413.773L148.667 413.844C165.108 413.988 172.795 413.844 173.435 413.486C173.791 413.271 173.934 412.411 173.72 411.623C173.151 409.545 174.005 409.832 180.268 413.701C192.225 421.153 206.175 433.836 208.951 439.783C209.306 440.643 210.018 443.581 210.516 446.232C212.153 455.189 214.289 459.846 227.669 483.062C232.722 491.804 236.85 499.471 236.85 500.044C236.85 503.34 227.669 547.264 223.683 562.956C221.192 572.916 217.99 587.533 216.566 595.415C215.071 603.297 213.007 612.469 211.797 615.836C208.879 624.22 208.595 626.369 210.303 626.799C211.015 627.014 224.537 627.301 240.409 627.373C273.504 627.659 298.771 626.799 298.771 625.51C298.771 625.08 297.134 622.572 295.07 620.064C289.945 613.615 287.098 606.951 283.753 593.48C282.187 587.031 279.625 577.43 278.131 572.127C274.857 560.735 273.433 554.357 272.508 547.049C271.867 542.391 271.939 541.531 273.006 540.385C275.995 537.017 280.195 534.438 287.952 531.285C301.262 525.839 304.251 524.334 308.45 521.038C315.71 515.306 318.272 510.29 326.315 486.501C336.065 457.553 348.592 434.696 365.602 414.847L371.723 407.682L371.936 413.056C372.079 416.997 371.865 418.932 370.94 420.651C370.086 422.228 369.872 423.446 370.299 424.951C370.584 426.097 370.869 428.462 370.94 430.253C371.011 432.044 371.296 434.051 371.652 434.696C372.079 435.627 370.94 436.845 366.598 440.285C363.538 442.792 359.979 445.444 358.698 446.303L356.35 447.808L356.563 468.086L356.777 488.364L373.716 488.149L390.655 487.934V467.656V447.378L388.164 445.659C379.694 439.855 374.854 435.699 375.424 434.624C375.709 433.979 375.993 431.829 375.993 429.751C375.993 427.745 376.207 425.81 376.563 425.524C377.417 424.664 377.132 422.013 375.993 420.508C375.282 419.505 374.997 417.14 374.926 411.838V404.529L381.047 399.299C394.712 387.547 404.889 381.314 414.284 378.949C419.907 377.444 428.946 377.874 432.932 379.737C439.266 382.747 445.173 390.629 448.59 400.517C450.013 404.529 450.796 416.854 450.084 422.013C449.657 424.807 449.372 425.237 448.376 424.807C446.17 423.804 440.547 423.661 436.561 424.521C426.455 426.599 416.918 434.839 411.295 446.16C405.744 457.625 405.174 465.65 409.8 469.089C411.01 469.949 411.936 471.239 411.936 472.027C411.936 472.744 412.861 474.248 413.928 475.252L415.921 477.186L416.064 499.829C416.206 519.39 416.064 522.615 415.138 523.403C413.928 524.406 413.715 528.132 414.854 528.849C415.281 529.064 415.494 530.067 415.281 530.998C415.138 531.93 415.281 532.503 415.565 532.288C415.921 532.073 416.206 531.428 416.206 530.855C416.206 529.493 418.056 529.565 418.626 530.998C419.551 533.434 419.124 534.366 417.202 533.936C415.494 533.649 415.352 533.793 415.708 535.584C416.064 537.375 415.565 537.949 409.089 542.821L402.043 548.123L401.971 566.18V584.309H405.744C423.039 584.524 432.932 584.237 433.145 583.592C433.287 583.162 436.134 582.876 439.764 582.876H446.099V566.037V549.198H439.764C436.277 549.198 433.287 548.983 433.145 548.625C433.074 548.338 429.8 545.831 426.028 542.964L419.124 537.805L419.338 533.506C419.409 531.142 419.693 528.992 419.978 528.705C420.832 527.845 420.547 524.334 419.551 523.546C418.839 522.901 418.626 517.599 418.483 499.829L418.341 476.9L420.476 474.822C421.686 473.604 422.611 472.17 422.611 471.597C422.611 470.952 423.75 470.093 425.316 469.591C434.996 466.438 446.383 455.833 454.07 442.792C457.344 437.275 460.831 427.029 461.828 419.792C462.895 412.196 462.184 399.8 460.333 392.635C457.273 381.242 448.874 368.989 440.903 364.475C433.216 360.104 428.804 358.958 419.053 359.029C404.676 359.029 392.79 362.899 378.698 371.927L374.926 374.363V371.425C374.926 369.347 375.424 367.843 376.705 366.41C379.125 363.472 379.623 360.104 378.128 356.951C377.132 354.802 376.99 352.437 377.203 341.976L377.417 329.579L379.979 328.433C385.032 326.068 387.666 319.548 385.317 314.962C384.249 312.884 384.249 312.383 385.246 309.015C387.239 302.279 386.171 292.534 382.399 282.073C381.331 279.135 380.691 276.412 380.833 275.911C381.26 274.764 394.427 265.808 409.8 256.134C421.829 248.611 427.665 244.598 434.996 239.081L439.124 235.856L442.825 236.716C458.838 240.299 476.703 257.424 484.888 276.914C489.87 288.88 492.503 304.644 491.08 314.317C490.582 317.327 489.585 321.626 488.731 323.847C483.607 337.748 459.337 348.066 443.18 343.337C434.141 340.614 430.512 335.67 430.44 325.997C430.44 319.118 431.152 316.324 433.928 311.881C438.198 305.146 445.529 302.638 453.572 305.146C458.483 306.65 458.411 306.005 453.429 304.142C445.173 300.99 437.131 303.498 432.149 310.806C429.231 315.034 428.305 318.043 427.807 324.635C427.024 334.882 430.868 341.474 440.262 345.917C444.39 347.851 445.956 348.209 452.291 348.424C461.685 348.783 468.304 347.35 476.916 342.979C487.948 337.461 494.069 330.009 497.129 318.473C498.838 311.953 498.838 295.902 497.058 287.662C491.436 261.293 475.706 239.081 455.351 228.906C452.789 227.616 450.654 226.47 450.511 226.398C450.013 225.968 458.269 215.292 459.123 215.292C461.045 215.292 468.02 217.513 476.916 220.952C497.343 228.834 505.457 229.336 517.698 223.245C534.922 214.647 547.947 192.219 548.16 170.866C548.232 160.477 546.808 155.962 541.968 151.09C533.285 142.42 519.051 141.417 505.599 148.51C500.119 151.377 491.436 159.402 487.521 165.277C485.742 167.857 486.881 166.925 492.574 161.193C500.475 153.24 506.168 149.514 513.357 147.651C525.385 144.426 537.769 148.654 542.324 157.539C543.676 159.975 543.89 161.623 543.89 167.642C543.89 176.957 542.395 182.761 537.342 193.079C533.855 200.316 532.574 202.107 527.307 207.481C520.616 214.217 515.136 217.513 507.948 219.018C502.04 220.236 496.275 218.588 485.244 212.426C480.333 209.703 473.714 206.478 470.653 205.189C467.522 203.97 464.888 202.824 464.746 202.752C464.603 202.609 465.458 200.674 466.596 198.381C470.084 191.431 476.56 174.306 479.123 165.349C484.105 148.009 486.454 125.868 485.742 103.512C485.457 96.2032 484.817 87.963 484.247 85.0969C478.553 57.1519 459.479 39.955 439.764 45.0424C429.088 47.7653 417.345 57.0086 410.868 67.6134L408.021 72.2709L407.808 69.4047C406.953 57.2952 402.968 44.8275 398.342 39.5251C394.071 34.581 391.153 33.0763 386.029 33.0046C377.63 32.8613 370.513 39.0235 364.392 51.4913C358.414 63.7441 355.638 77.3583 355.638 94.7701C355.638 106.665 356.065 110.606 358.983 127.158C361.189 139.697 361.474 149.8 359.695 156.536C358.556 160.907 357.346 163.199 350.086 175.022C344.464 184.122 339.41 199.886 337.916 212.927C336.706 224.034 339.197 239.081 344.677 253.268C346.385 257.782 347.239 261.437 347.595 265.736L348.094 271.755L339.624 281.07C334.927 286.157 331.083 290.242 331.012 290.17C330.941 290.17 331.226 285.226 331.653 279.279C332.578 266.094 331.439 226.613 329.731 213.859C328.165 202.609 325.532 189.425 323.254 182.188C319.126 169.003 310.514 155.246 302.756 149.442C300.265 147.507 299.269 146.218 298.771 144.068C296.564 135.469 292.009 125.366 288.095 120.565C282.757 114.045 272.081 111.967 263.754 115.836C261.263 116.983 257.775 119.562 254.928 122.428L250.16 127.086L246.174 125.581C235.854 121.784 225.534 113.472 219.342 104.085C207.741 86.6016 205.534 69.0464 212.296 48.5535C217.99 31.4282 226.459 18.9605 237.42 11.7235C244.039 7.3526 248.736 5.77621 254.999 5.70456C263.611 5.70456 271.654 10.7203 275.497 18.3873C277.419 22.3282 279.554 29.5653 279.554 32.3598C279.554 35.0826 278.131 40.9582 277.063 42.3196C276.138 43.6094 276.067 43.6094 274.358 42.033C271.867 39.6684 268.878 32.5031 268.024 26.9141C267.028 20.3936 266.601 19.6054 266.031 22.9015C265.035 28.2755 267.17 36.5873 270.942 42.1763C275.07 48.1952 278.771 47.622 281.405 40.4566C284.038 33.0763 281.547 19.1038 276.494 12.3684C269.092 2.62345 257.562 -1.81909 246.103 0.688796ZM391.082 42.5346C393.786 44.5409 397.06 50.2015 399.338 56.6503C401.473 62.8126 401.615 63.4574 401.615 74.4921C401.615 85.3835 401.544 86.1717 399.765 89.8977C397.274 95.0568 395.352 97.0631 392.648 97.0631C391.438 97.0631 389.872 97.3497 389.16 97.7796C388.093 98.3528 387.381 98.0662 385.53 96.5615C382.043 93.552 379.908 88.3213 379.837 82.374C379.765 76.0685 378.627 78.7197 378.555 85.5268C378.484 90.9725 380.05 94.7701 383.751 98.4245C385.744 100.359 386.1 101.147 385.602 102.365C384.676 104.802 385.602 107.668 387.879 109.602C389.018 110.606 390.228 111.394 390.513 111.394C390.797 111.394 391.011 117.269 390.94 124.435C390.868 131.672 391.082 138.622 391.367 139.912C391.651 141.273 391.58 142.42 391.153 142.635C390.726 142.921 390.655 144.211 390.94 145.716C391.153 147.149 391.367 149.084 391.367 150.087C391.367 151.09 391.153 153.025 390.94 154.458C390.655 156.106 390.726 157.252 391.224 157.539C392.505 158.399 392.078 160.19 390.228 161.981C387.95 164.059 387.808 167.499 389.943 168.932C391.224 169.863 391.367 170.58 391.153 174.377L390.797 178.748L384.819 183.263C381.545 185.77 378.128 188.207 377.274 188.637C375.993 189.353 375.851 189.926 376.136 192.363C376.563 195.157 376.491 195.229 374.356 195.229C370.299 195.229 365.104 196.733 361.759 198.883L358.414 201.033L358.912 198.668C359.481 195.874 362.684 189.066 368.093 179.107C377.844 161.336 378.911 146.934 372.506 120.207C368.591 103.727 367.453 94.4119 368.093 83.4488C369.018 65.9653 374.072 50.6314 381.118 43.896C384.748 40.3849 387.666 39.955 391.082 42.5346ZM456.561 54.5007C464.034 58.1551 471.294 68.6882 474.496 80.5827C479.55 99.0694 477.486 137.906 470.226 159.76C465.956 172.514 449.728 203.111 447.166 203.111C444.675 203.111 433.003 209.989 427.665 214.575L421.9 219.591V206.048V192.506L415.779 192.004C412.434 191.718 409.16 191.073 408.448 190.571C407.808 189.998 404.32 187.132 400.619 184.122L393.929 178.677L393.644 174.377C393.359 170.651 393.573 169.935 394.925 168.788C396.918 167.212 396.918 163.844 394.996 162.268C393.715 161.193 393.644 160.405 393.786 152.236C393.929 146.791 393.644 142.85 393.217 142.133C392.648 141.202 392.648 140.342 393.288 138.981C394.356 136.688 394.427 133.821 393.431 133.248C393.075 133.033 392.719 132.03 392.719 131.099C392.719 130.167 393.075 129.164 393.431 128.949C393.858 128.734 394.142 127.588 394.142 126.441C394.142 125.295 393.858 124.148 393.431 123.933C393.075 123.718 392.719 122.715 392.719 121.784C392.719 120.852 393.075 119.849 393.431 119.634C393.858 119.419 394.142 118.273 394.142 117.126C394.142 115.98 393.858 114.833 393.431 114.618C391.509 113.4 393.146 111.107 397.772 108.743C397.986 108.599 398.199 111.179 398.199 114.403C398.555 140.557 414.569 159.402 433.287 155.819C443.536 153.884 454.924 145.143 459.408 135.756C468.02 117.699 467.949 101.147 459.265 90.6859C456.561 87.5331 455.849 87.8914 457.842 91.4741C461.045 97.278 461.97 102.222 461.614 111.322C460.902 128.806 453.358 142.062 440.547 148.439C435.636 150.875 434.569 151.162 429.444 151.162C424.391 151.162 423.181 150.875 419.836 149.012C409.16 143.065 403.466 128.447 404.32 109.244C405.245 90.3993 412.505 73.274 424.675 61.7378C435.209 51.7779 446.027 49.27 456.561 54.5007ZM399.124 99.9292C399.124 100.287 398.982 100.646 398.84 100.646C398.626 100.646 398.27 100.287 398.057 99.9292C397.843 99.4993 397.986 99.2127 398.342 99.2127C398.769 99.2127 399.124 99.4993 399.124 99.9292ZM397.559 103.584C397.843 106.951 395.922 109.316 392.648 109.674C388.876 110.032 385.815 106.736 386.74 103.154C387.167 101.506 387.452 101.434 389.872 101.792C391.367 102.079 393.146 101.864 393.858 101.434C396.135 100.144 397.345 100.789 397.559 103.584ZM393.288 116.983C393.431 118.058 393.146 118.559 392.434 118.559C391.651 118.559 391.295 117.914 391.295 116.696C391.295 114.475 392.932 114.69 393.288 116.983ZM274.643 122.93C275.995 123.432 277.917 124.578 278.985 125.581C280.906 127.373 284.109 133.392 284.963 136.759L285.39 138.551L279.483 136.401C276.209 135.183 270.159 133.177 266.031 131.958C261.903 130.74 258.416 129.666 258.273 129.522C257.562 129.021 261.547 125.581 264.892 123.933C268.807 121.927 271.013 121.712 274.643 122.93ZM393.288 126.584C392.932 128.877 391.295 129.092 391.295 126.871C391.295 125.653 391.651 125.008 392.434 125.008C393.146 125.008 393.431 125.51 393.288 126.584ZM393.431 136.114C393.431 137.261 393.004 137.906 392.363 137.906C391.722 137.906 391.295 137.261 391.295 136.114C391.295 134.968 391.722 134.323 392.363 134.323C393.004 134.323 393.431 134.968 393.431 136.114ZM276.351 151.592C279.198 152.738 283.042 154.673 284.892 155.891L288.308 158.04L287.881 164.633C287.383 174.234 288.451 183.764 291.013 191.789C293.077 198.31 294.358 200.889 302.543 214.933C304.393 218.158 307.027 223.89 308.379 227.76C310.799 234.423 310.87 235.211 310.728 242.807L310.514 250.76L301.831 239.296C291.013 224.893 282.828 215.65 275.284 209.201C268.807 203.612 261.405 198.596 257.775 197.235C255.284 196.375 254.786 195.659 256.067 194.87C256.565 194.584 256.636 192.363 256.352 188.852L255.853 183.334L259.056 182.116C262.828 180.683 266.245 177.459 268.38 173.446C269.519 171.225 269.946 169.218 269.946 165.062C269.946 160.19 269.732 159.402 267.953 157.037C265.747 154.099 263.754 152.595 261.049 151.95C259.768 151.592 260.053 151.878 261.903 152.953C265.818 155.103 267.668 158.184 268.024 163.128C268.38 168.287 266.956 172.586 263.682 175.739C260.978 178.39 256.352 180.54 255.711 179.393C255.355 178.892 254.928 178.892 254.288 179.465C253.007 180.54 250.231 179.322 248.309 176.885C243.825 171.153 243.541 158.685 247.597 146.074L249.021 141.632L260.124 145.501C266.174 147.651 273.504 150.373 276.351 151.592ZM393.431 145.429C393.431 146.576 393.004 147.221 392.363 147.221C391.722 147.221 391.295 146.576 391.295 145.429C391.295 144.283 391.722 143.638 392.363 143.638C393.004 143.638 393.431 144.283 393.431 145.429ZM393.431 154.744C393.431 155.891 393.004 156.536 392.363 156.536C391.722 156.536 391.295 155.891 391.295 154.744C391.295 153.598 391.722 152.953 392.363 152.953C393.004 152.953 393.431 153.598 393.431 154.744ZM394.712 163.128C395.21 163.629 395.566 164.633 395.566 165.492C395.566 166.352 395.21 167.355 394.712 167.857C394.214 168.359 393.217 168.717 392.363 168.717C391.509 168.717 390.513 168.359 390.014 167.857C389.516 167.355 389.16 166.352 389.16 165.492C389.16 164.633 389.516 163.629 390.014 163.128C390.513 162.626 391.509 162.268 392.363 162.268C393.217 162.268 394.214 162.626 394.712 163.128ZM392.505 173.518C392.292 174.234 392.15 173.661 392.15 172.3C392.15 170.938 392.292 170.365 392.505 171.01C392.648 171.726 392.648 172.873 392.505 173.518ZM303.041 177.1C304.82 181.185 308.806 193.939 308.45 194.369C307.881 194.87 304.607 188.422 303.183 184.122C301.618 179.465 300.55 173.733 301.191 173.733C301.404 173.733 302.187 175.237 303.041 177.1ZM395.139 190.571C395.423 191.431 394.854 191.646 392.363 191.646C390.014 191.646 389.16 191.359 389.16 190.571C389.16 189.783 389.943 189.496 391.936 189.496C393.715 189.496 394.854 189.855 395.139 190.571ZM256.067 192.721C256.067 193.294 255.569 193.796 254.999 193.796C254.43 193.796 253.932 193.294 253.932 192.721C253.932 192.148 254.43 191.646 254.999 191.646C255.569 191.646 256.067 192.148 256.067 192.721ZM407.665 209.989C407.665 224.32 407.452 228.261 406.811 228.046C406.099 227.76 405.815 223.317 405.53 210.061C405.174 193.151 405.316 191.861 407.167 191.718C407.452 191.646 407.665 199.886 407.665 209.989ZM403.537 209.559C403.751 226.613 403.751 226.756 402.256 226.756C400.975 226.756 400.69 226.183 400.334 222.529C400.05 220.164 399.338 217.011 398.769 215.435C397.915 213.429 397.559 209.846 397.487 203.039L397.345 193.437L399.836 193.007C401.188 192.721 402.541 192.506 402.825 192.434C403.11 192.434 403.466 200.101 403.537 209.559ZM387.737 196.304V199.6L385.602 198.453C384.392 197.808 383.609 197.02 383.822 196.733C384.036 196.375 383.538 196.232 382.755 196.447C381.616 196.733 381.331 196.447 381.331 194.942C381.331 193.222 381.545 193.079 384.534 193.079H387.737V196.304ZM395.566 200.674V208.27L392.363 204.759C389.445 201.534 389.231 201.033 389.16 197.163V193.079H392.363H395.566V200.674ZM419.551 193.509C421.188 193.939 421.188 194.082 421.117 207.338C421.117 222.672 420.903 223.317 414.782 225.682C413.003 226.326 411.153 227.043 410.726 227.258C410.014 227.545 409.8 223.89 409.8 210.348V193.079H413.928C416.135 193.079 418.697 193.294 419.551 193.509ZM43.9719 202.824C43.9719 205.26 43.6872 206.622 43.2602 206.335C42.9043 206.12 42.5485 204.329 42.5485 202.322C42.5485 200.388 42.9043 198.811 43.2602 198.811C43.6872 198.811 43.9719 200.603 43.9719 202.824ZM376.207 215.148L375.993 229.408L378.627 230.196C380.121 230.697 384.463 231.056 388.377 231.056C392.577 231.056 395.637 231.342 395.922 231.772C396.705 232.99 394.214 236.071 391.722 237.146C388.947 238.364 386.1 237.791 380.619 235.068C378.413 233.922 377.203 233.563 377.773 234.208C378.342 234.782 380.975 236.358 383.68 237.719L388.449 240.084L380.192 245.816C375.709 248.897 371.367 251.907 370.655 252.48C369.374 253.34 369.089 253.125 367.025 248.539C360.976 234.997 357.844 224.965 357.844 218.874C357.844 210.419 366.385 201.248 374.427 201.033L376.491 200.961L376.207 215.148ZM385.246 205.332C384.961 205.69 385.032 205.977 385.388 205.905C387.594 205.547 387.737 206.048 387.737 216.295V226.613L384.534 226.9L381.331 227.115V214.719V202.322L383.466 203.469C384.676 204.114 385.459 204.902 385.246 205.332ZM256.067 210.061C256.067 211.494 254.359 210.849 254.074 209.344C253.932 208.485 254.145 208.27 254.928 208.556C255.569 208.771 256.067 209.488 256.067 210.061ZM393.431 214.074C395.068 217.37 395.566 219.376 395.566 222.6V226.756H392.363H389.16V217.37C389.16 206.622 389.587 206.335 393.431 214.074ZM43.9719 210.276C43.9719 211.064 43.6872 211.709 43.2602 211.709C42.9043 211.709 42.5485 211.064 42.5485 210.276C42.5485 209.488 42.9043 208.843 43.2602 208.843C43.6872 208.843 43.9719 209.488 43.9719 210.276ZM119.771 209.918C125.465 211.422 130.162 214.145 135.144 218.874L139.415 222.815L137.92 228.548C136.852 232.489 136.354 236.716 136.283 242.234L136.141 250.187L132.938 249.184C131.159 248.611 123.97 246.748 116.924 245.028C102.049 241.374 96.0704 239.367 90.5901 236C85.8927 233.134 85.8927 232.847 90.3766 225.037C93.9352 218.946 98.2056 214.504 102.974 212.067C109.451 208.771 113.437 208.27 119.771 209.918ZM266.672 218.659C271.796 223.819 278.629 231.987 284.323 239.654C294.002 252.695 303.041 265.808 303.041 266.811C303.041 267.097 300.194 269.534 296.707 272.113C289.803 277.344 277.063 288.665 273.362 292.893C272.081 294.326 270.871 295.544 270.657 295.544C270.444 295.544 270.23 291.245 270.302 286.014C270.444 263.3 270.373 259.717 269.376 259.717C268.807 259.717 265.604 257.567 262.188 254.988L255.925 250.259L257.49 248.611C259.341 246.604 258.985 243.738 256.779 242.52C255.213 241.66 254.715 237.289 256.067 236.43C257.063 235.856 256.992 233.492 255.925 231.772C255.213 230.626 255.213 230.052 255.925 228.906C256.352 228.118 256.779 226.828 256.779 226.04C256.779 225.252 256.352 223.962 255.925 223.174C255.213 222.027 255.213 221.454 255.925 220.308C256.992 218.588 257.063 216.223 256.067 215.65C254.43 214.647 255.782 210.276 257.704 210.276C258.131 210.276 262.117 214.074 266.672 218.659ZM255.925 217.585C255.782 218.516 255.426 219.233 254.999 219.233C254.644 219.233 254.217 218.516 254.074 217.585C253.932 216.51 254.217 216.008 254.999 216.008C255.782 216.008 256.067 216.51 255.925 217.585ZM159.912 218.516C168.097 222.744 176.638 240.514 184.681 269.749C191.157 293.394 194.716 299.27 209.093 309.445C215.143 313.744 226.174 318.831 237.633 322.557L248.024 325.925L244.323 333.449C242.259 337.676 239.84 343.122 239.057 345.702C234.217 360.534 238.131 374.578 248.452 379.88C251.725 381.528 252.722 381.672 257.562 381.314L263.042 380.955L261.618 385.398C258.202 396.647 253.505 413.844 250.658 425.882C248.95 433.119 247.384 439.21 247.242 439.353C246.815 439.783 244.964 435.627 243.469 430.97C242.758 428.748 242.188 422.299 241.761 410.907C241.477 401.663 240.694 391.632 240.124 388.551C237.776 376.154 231.441 361.179 223.256 348.568C218.701 341.617 211.584 334.022 196.709 320.336C188.382 312.669 185.036 308.513 181.051 301.276C178.916 297.264 177.99 293.968 174.93 278.992C169.236 250.832 164.112 237.504 153.436 222.672C151.016 219.304 150.874 218.874 152.012 218.23C153.792 217.155 157.635 217.298 159.912 218.516ZM256.067 226.04C256.067 226.828 255.569 227.473 254.999 227.473C254.43 227.473 253.932 226.828 253.932 226.04C253.932 225.252 254.43 224.607 254.999 224.607C255.569 224.607 256.067 225.252 256.067 226.04ZM43.9719 227.903C43.9719 230.124 42.3349 229.909 41.9791 227.616C41.8367 226.541 42.1214 226.04 42.8331 226.04C43.616 226.04 43.9719 226.685 43.9719 227.903ZM150.304 241.589C151.656 244.813 153.436 249.972 154.29 253.053C155.144 256.134 155.998 259.216 156.14 259.932C156.425 260.864 155.5 260.505 152.368 258.499C150.091 256.994 146.674 254.988 144.824 253.985L141.479 252.193V247.393C141.479 242.735 143.045 232.489 144.041 230.912C144.681 229.909 147.244 234.208 150.304 241.589ZM402.683 232.13C398.769 234.28 398.484 234.28 398.911 232.56C399.267 231.271 400.477 230.841 404.818 230.482C405.388 230.411 404.462 231.199 402.683 232.13ZM256.067 234.71C256.067 235.426 255.569 236.071 254.999 236.071C253.932 236.071 253.505 233.85 254.359 232.99C255.142 232.274 256.067 233.205 256.067 234.71ZM43.9719 236.43C43.9719 237.576 43.5449 238.221 42.9043 238.221C41.8367 238.221 41.4097 236 42.3349 235.14C43.2602 234.137 43.9719 234.71 43.9719 236.43ZM257.49 244.312C259.127 246.318 258.06 247.894 254.999 247.894C252.864 247.894 252.081 247.608 251.939 246.604C251.583 244.813 253.078 243.237 254.999 243.237C255.853 243.237 256.992 243.738 257.49 244.312ZM43.9719 245.386C43.9719 246.175 43.4737 246.819 42.9043 246.819C42.3349 246.819 41.8367 246.175 41.8367 245.386C41.8367 244.598 42.3349 243.953 42.9043 243.953C43.4737 243.953 43.9719 244.598 43.9719 245.386ZM43.9719 253.985C43.9719 254.773 43.4737 255.418 42.9043 255.418C42.3349 255.418 41.8367 254.773 41.8367 253.985C41.8367 253.197 42.3349 252.552 42.9043 252.552C43.4737 252.552 43.9719 253.197 43.9719 253.985ZM42.6196 260.935C41.9791 262.082 41.9079 262.082 41.8367 261.007C41.8367 260.362 42.0502 259.216 42.3349 258.499C42.8331 257.353 42.9043 257.281 43.1178 258.427C43.2602 259.144 43.0467 260.219 42.6196 260.935ZM261.049 261.15C261.049 261.58 258.7 261.867 255.355 261.867C252.01 261.867 249.661 261.58 249.661 261.15C249.661 260.72 252.01 260.434 255.355 260.434C258.7 260.434 261.049 260.72 261.049 261.15ZM44.6836 264.733C45.7512 266.739 44.3278 269.534 42.9043 268.316C42.3349 267.886 41.2673 267.671 40.5556 267.886C38.8475 268.459 38.2069 267.169 39.061 264.876C39.8439 262.798 43.5449 262.655 44.6836 264.733ZM261.049 278.705V294.111H254.999H248.95V278.705V263.3H254.999H261.049V278.705ZM307.739 274.908C309.091 277.559 308.735 281.571 306.6 288.594C304.536 295.329 296.92 312.454 296.209 312.024C295.426 311.594 295.426 308.227 296.066 305.217C296.493 303.426 296.351 303.498 295.212 305.934C293.646 309.158 293.433 312.168 294.572 314.031C295.212 315.034 294.714 316.61 292.365 321.841L289.305 328.433L284.251 323.776C281.476 321.196 276.778 317.613 273.86 315.822C270.942 313.959 268.38 312.383 268.238 312.311C267.739 311.881 278.842 298.482 285.461 291.531C290.515 286.157 305.532 272.615 306.386 272.615C306.457 272.615 307.098 273.618 307.739 274.908ZM34.933 281.715C34.4348 281.858 33.5807 281.858 33.1536 281.715C32.6554 281.5 33.0113 281.357 34.0077 281.357C35.0041 281.357 35.36 281.5 34.933 281.715ZM42.5485 281.93C43.9719 282.36 43.5449 282.503 40.6268 282.575C38.5628 282.646 36.8546 282.36 36.8546 281.93C36.8546 281.07 39.9862 281.07 42.5485 281.93ZM34.6483 283.793C35.0041 284.079 32.7266 310.376 32.1572 313.601C31.8014 315.249 31.3743 315.607 29.6662 315.607C27.1751 315.607 27.1751 316.753 29.0256 297.694C29.8085 289.597 30.4491 282.861 30.4491 282.718C30.4491 282.431 34.2212 283.363 34.6483 283.793ZM41.6944 284.079C44.0431 284.079 44.1143 284.151 43.6872 286.731C43.4737 288.235 42.762 295.472 42.1214 302.853L40.9115 316.324H37.0681C34.5059 316.324 33.296 316.037 33.296 315.392C33.296 314.962 33.9365 307.94 34.7194 299.843C35.5023 291.746 36.1429 284.724 36.1429 284.151C36.1429 283.506 36.6411 283.363 37.7799 283.649C38.6339 283.864 40.4133 284.079 41.6944 284.079ZM157.137 293.753C157.137 294.111 156.781 293.968 156.425 293.394C156.069 292.821 155.713 291.961 155.713 291.603C155.713 291.173 156.069 291.388 156.425 291.961C156.781 292.534 157.137 293.323 157.137 293.753ZM158.347 298.553C158.133 299.127 157.92 298.912 157.92 298.123C157.848 297.335 158.062 296.905 158.276 297.192C158.489 297.407 158.56 298.052 158.347 298.553ZM159.272 301.563C159.272 302.136 158.987 302.853 158.56 303.068C158.204 303.283 157.848 302.853 157.848 302.064C157.848 301.205 158.204 300.56 158.56 300.56C158.987 300.56 159.272 300.99 159.272 301.563ZM176.923 334.237C183.755 344.483 193.008 355.948 201.976 365.406C209.235 373.002 209.591 373.503 211.513 379.379C213.719 386.186 214.075 392.133 212.723 400.947C211.228 410.477 212.082 410.118 204.609 404.601C192.083 395.214 183.4 390.055 175.571 387.332L173.364 386.544L173.578 380.167L173.791 373.79L166.887 368.273C160.482 363.185 159.058 361.394 160.624 360.462C161.621 359.817 161.976 357.596 161.265 355.733C160.268 353.082 159.912 344.555 159.912 322.772C159.912 311.953 159.912 302.924 159.984 302.709C159.984 302.566 162.688 307.868 165.962 314.604C169.236 321.268 174.218 330.153 176.923 334.237ZM159.272 306.65C159.272 307.653 158.987 308.442 158.56 308.442C158.204 308.442 157.848 307.653 157.848 306.65C157.848 305.647 158.204 304.859 158.56 304.859C158.987 304.859 159.272 305.647 159.272 306.65ZM158.347 312.168C158.133 312.669 157.991 312.311 157.991 311.308C157.991 310.305 158.133 309.946 158.347 310.376C158.489 310.878 158.489 311.738 158.347 312.168ZM159.272 315.965C159.272 316.968 158.987 317.757 158.56 317.757C158.204 317.757 157.848 316.968 157.848 315.965C157.848 314.962 158.204 314.174 158.56 314.174C158.987 314.174 159.272 314.962 159.272 315.965ZM158.347 321.483C158.133 321.984 157.991 321.626 157.991 320.623C157.991 319.62 158.133 319.261 158.347 319.691C158.489 320.193 158.489 321.053 158.347 321.483ZM159.272 325.71C159.272 326.427 158.987 327.072 158.56 327.072C158.204 327.072 157.848 326.212 157.848 325.209C157.848 324.205 158.133 323.561 158.56 323.847C158.987 324.062 159.272 324.922 159.272 325.71ZM158.347 331.156C158.133 331.872 157.991 331.442 157.991 330.296C157.991 329.078 158.133 328.576 158.347 329.006C158.489 329.508 158.489 330.511 158.347 331.156ZM260.907 331.586C266.885 336.028 275.995 345.988 275.995 347.995C275.995 350.359 258.131 365.048 255.355 365.048C252.437 365.048 248.95 358.599 248.95 353.225C248.95 348.138 255.853 329.938 257.846 329.938C258.273 329.938 259.626 330.654 260.907 331.586ZM370.086 343.265C370.655 353.87 370.584 354.515 369.232 356.235C368.307 357.453 367.808 359.173 367.808 361.25C367.808 363.83 368.235 364.833 369.944 366.624C371.794 368.416 372.079 369.276 372.079 372.428C372.008 376.083 372.008 376.154 368.378 378.662C347.595 392.778 320.763 424.091 308.45 448.453C305.888 453.469 302.756 461.207 300.977 466.796C295.924 483.062 294.785 485.57 290.871 488.436C288.878 489.941 275.995 494.813 275.995 494.097C275.995 493.882 276.422 491.23 276.992 488.293C277.561 485.355 279.198 475.323 280.622 466.08C283.824 445.3 286.173 434.552 291.725 416.209C294.073 408.399 297.134 398.08 298.486 393.423C301.404 383.248 302.685 381.314 313.859 370.35C322.258 362.11 324.962 360.247 340.407 352.222C349.09 347.708 358.414 341.259 365.175 334.954C367.168 333.091 369.018 331.657 369.161 331.801C369.303 331.944 369.73 337.103 370.086 343.265ZM159.272 334.954C159.272 335.742 158.987 336.387 158.56 336.387C158.204 336.387 157.848 335.742 157.848 334.954C157.848 334.165 158.204 333.52 158.56 333.52C158.987 333.52 159.272 334.165 159.272 334.954ZM158.347 340.471C158.133 341.187 157.991 340.757 157.991 339.611C157.991 338.393 158.133 337.891 158.347 338.321C158.489 338.823 158.489 339.826 158.347 340.471ZM159.272 344.269C159.272 345.057 158.987 345.702 158.56 345.702C158.204 345.702 157.848 345.057 157.848 344.269C157.848 343.48 158.204 342.835 158.56 342.835C158.987 342.835 159.272 343.48 159.272 344.269ZM159.628 350.001C159.628 351.792 159.272 352.58 158.347 352.724C156.852 353.01 156.14 351.362 156.71 348.854C157.421 345.988 159.628 346.848 159.628 350.001ZM160.553 357.453C160.767 359.961 160.624 360.176 159.699 359.387C159.13 358.886 157.991 358.671 157.137 358.958C155.927 359.316 155.713 359.101 155.713 357.31C155.713 354.73 156.283 354.157 158.56 354.443C160.055 354.658 160.34 355.088 160.553 357.453ZM373.502 360.391C374.641 360.391 375.566 359.817 376.064 358.743L376.919 357.095L377.346 358.958C378.698 364.403 373.218 368.989 370.371 364.905C369.161 363.257 368.876 360.319 369.659 358.241C370.086 357.238 370.228 357.31 370.94 358.743C371.438 359.817 372.363 360.391 373.502 360.391ZM374.214 369.777C374.214 370.35 373.929 370.78 373.502 370.78C373.146 370.78 372.79 370.136 372.79 369.276C372.79 368.487 373.146 368.058 373.502 368.273C373.929 368.487 374.214 369.204 374.214 369.777ZM374.214 373.647C374.214 374.435 373.929 375.08 373.502 375.08C373.146 375.08 372.79 374.435 372.79 373.647C372.79 372.858 373.146 372.213 373.502 372.213C373.929 372.213 374.214 372.858 374.214 373.647ZM155.571 378.806C155.713 380.812 155.571 381.457 154.859 381.242C154.361 381.027 152.083 380.525 149.877 380.095C146.176 379.379 145.749 379.092 145.749 377.516C145.749 375.796 145.891 375.725 150.589 375.939L155.357 376.154L155.571 378.806ZM159.272 379.092C159.272 383.32 157.564 383.033 157.279 378.806C157.137 376.441 157.279 375.796 158.133 375.796C158.987 375.796 159.272 376.584 159.272 379.092ZM170.66 380.525C170.66 384.681 170.517 385.183 169.45 384.825C168.738 384.61 166.745 384.108 164.966 383.678L161.763 382.89L161.976 379.307L162.261 375.796H166.46H170.66V380.525ZM151.087 400.732L155.357 402.021L155.571 406.822L155.784 411.623H150.304C145.678 411.623 144.966 411.48 145.322 410.477C145.536 409.832 145.749 407.109 145.749 404.386C145.749 401.663 145.963 399.442 146.318 399.442C146.603 399.442 148.738 400.015 151.087 400.732ZM159.13 407.181C158.987 409.545 158.56 411.265 158.062 411.48C157.35 411.695 157.137 410.477 157.137 407.037C157.137 403.096 157.279 402.451 158.204 402.81C159.058 403.096 159.272 404.099 159.13 407.181ZM166.318 406.321C169.094 407.539 170.66 408.685 170.66 409.402C170.66 410.333 169.948 410.477 166.033 410.333L161.407 410.047V407.252C161.407 405.747 161.549 404.458 161.692 404.458C161.905 404.458 163.969 405.318 166.318 406.321ZM374.214 408.04C374.214 408.829 373.929 409.473 373.502 409.473C373.146 409.473 372.79 408.829 372.79 408.04C372.79 407.252 373.146 406.607 373.502 406.607C373.929 406.607 374.214 407.252 374.214 408.04ZM374.214 412.698C374.214 413.701 373.929 414.489 373.502 414.489C373.146 414.489 372.79 413.701 372.79 412.698C372.79 411.695 373.146 410.907 373.502 410.907C373.929 410.907 374.214 411.695 374.214 412.698ZM374.214 417.355C374.214 418.144 373.929 418.788 373.502 418.788C373.146 418.788 372.79 418.144 372.79 417.355C372.79 416.567 373.146 415.922 373.502 415.922C373.929 415.922 374.214 416.567 374.214 417.355ZM375.637 421.583C376.705 423.733 375.424 426.455 373.36 426.312C370.513 426.097 370.584 420.222 373.431 420.222C374.214 420.222 375.21 420.866 375.637 421.583ZM52.5127 426.025C52.5127 427.745 50.8757 427.53 50.5198 425.739C50.3775 425.022 50.7333 424.521 51.3739 424.521C52.0856 424.521 52.5127 425.166 52.5127 426.025ZM448.163 427.602C448.732 428.39 448.59 429.608 447.593 432.546C442.682 446.948 428.021 462.999 419.195 463.644C417.701 463.715 415.708 464.002 414.64 464.289C412.007 464.933 411.651 463.142 412.932 456.765C415.779 443.151 425.458 431.113 436.348 427.745C440.405 426.455 447.095 426.384 448.163 427.602ZM375.21 428.533C376.207 431.185 375.709 432.403 373.502 432.403C371.652 432.403 371.367 432.116 371.367 430.396C371.367 429.25 371.581 428.103 371.865 427.888C372.719 426.957 374.783 427.387 375.21 428.533ZM52.5127 434.982C52.5127 437.203 50.8757 436.988 50.5198 434.696C50.3775 433.621 50.6622 433.119 51.3739 433.119C52.1568 433.119 52.5127 433.764 52.5127 434.982ZM52.5127 443.437C52.5127 444.44 52.1568 445.444 51.8009 445.659C50.8757 446.232 50.0928 444.226 50.6622 442.792C51.3027 441.073 52.5127 441.574 52.5127 443.437ZM378.484 467.513V486.143H373.573H368.591L368.52 467.943L368.449 449.671L371.154 449.385C372.648 449.241 374.926 449.098 376.207 449.026L378.484 448.883V467.513ZM365.887 450.101L364.25 450.388V467.871V485.355L366.243 485.641C368.022 485.928 368.022 485.928 365.887 486.071L363.538 486.143V467.871V449.6L365.531 449.671C367.168 449.815 367.239 449.815 365.887 450.101ZM382.612 450.101C381.474 450.388 381.402 451.892 381.402 467.298C381.402 476.613 381.189 484.352 381.047 484.567C380.833 484.71 380.691 476.971 380.691 467.226V449.6L382.256 449.671C383.395 449.743 383.538 449.815 382.612 450.101ZM52.5127 452.824C52.5127 453.97 52.0856 454.615 51.4451 454.615C50.8045 454.615 50.3775 453.97 50.3775 452.824C50.3775 451.678 50.8045 451.033 51.4451 451.033C52.0856 451.033 52.5127 451.678 52.5127 452.824ZM366.883 460.563C366.741 462.211 366.67 460.634 366.67 457.123C366.67 453.541 366.741 452.251 366.883 454.114C367.025 455.977 367.025 458.915 366.883 460.563ZM383.253 454.759C383.111 455.69 382.968 455.117 382.968 453.541C382.897 451.964 383.039 451.248 383.253 451.892C383.395 452.609 383.395 453.899 383.253 454.759ZM52.5127 462.139C52.5127 463.285 52.0856 463.93 51.4451 463.93C50.8045 463.93 50.3775 463.285 50.3775 462.139C50.3775 460.992 50.8045 460.348 51.4451 460.348C52.0856 460.348 52.5127 460.992 52.5127 462.139ZM52.5127 471.454C52.5127 472.6 52.0856 473.245 51.4451 473.245C50.8045 473.245 50.3775 472.6 50.3775 471.454C50.3775 470.307 50.8045 469.663 51.4451 469.663C52.0856 469.663 52.5127 470.307 52.5127 471.454ZM418.056 471.096C421.473 471.096 422.113 472.17 419.978 474.105C418.91 475.037 417.06 475.252 414.711 474.75C414.284 474.678 412.647 471.382 412.647 470.594C412.647 470.379 413.145 470.451 413.786 470.666C414.427 470.881 416.348 471.096 418.056 471.096ZM417.416 478.404C417.202 478.978 416.989 478.763 416.989 477.974C416.918 477.186 417.131 476.756 417.345 477.043C417.558 477.258 417.629 477.903 417.416 478.404ZM417.345 483.062C416.562 483.85 415.992 482.632 416.562 481.342C417.131 480.124 417.131 480.124 417.416 481.342C417.629 482.059 417.558 482.847 417.345 483.062ZM53.5802 482.274C54.2208 482.919 54.6478 484.137 54.5055 484.996C54.3631 486.215 53.8649 486.43 52.228 486.286C51.0892 486.143 49.9504 486.43 49.6657 486.931C49.2387 487.504 48.8828 487.289 48.2423 486.215C47.6017 484.925 47.6729 484.28 48.5981 482.847C49.8793 480.841 51.9433 480.626 53.5802 482.274ZM417.416 487.003C417.202 487.504 417.06 487.146 417.06 486.143C417.06 485.14 417.202 484.782 417.416 485.211C417.558 485.713 417.558 486.573 417.416 487.003ZM417.629 490.442C417.629 491.23 417.345 491.875 416.989 491.875C416.491 491.875 416.419 490.657 416.846 489.152C417.131 488.436 417.629 489.296 417.629 490.442ZM417.416 495.601C417.202 496.103 417.06 495.745 417.06 494.741C417.06 493.738 417.202 493.38 417.416 493.81C417.558 494.311 417.558 495.171 417.416 495.601ZM418.056 500.187C417.701 501.119 417.345 501.19 416.775 500.617C416.348 500.187 416.206 499.327 416.491 498.611C416.846 497.679 417.202 497.608 417.772 498.181C418.199 498.611 418.341 499.471 418.056 500.187ZM57.3524 519.964L57.1389 538.092H50.7333H44.3278L44.3989 535.727C44.3989 534.509 44.4701 526.341 44.5413 517.671L44.6836 501.907H51.0892H57.4948L57.3524 519.964ZM417.416 504.2C417.202 504.701 417.06 504.343 417.06 503.34C417.06 502.337 417.202 501.978 417.416 502.408C417.558 502.91 417.558 503.77 417.416 504.2ZM69.3806 509.574C69.0959 513.443 68.8824 521.182 68.8824 526.771C68.8824 533.148 68.5977 537.017 68.1707 537.017C67.7436 537.017 67.4589 530.783 67.4589 519.82C67.4589 504.343 67.6013 502.623 68.6689 502.623C69.6653 502.623 69.7365 503.412 69.3806 509.574ZM418.341 507.997C418.341 508.571 418.056 509.215 417.629 509.43C417.202 509.717 416.918 509.072 416.918 507.997C416.918 506.923 417.202 506.278 417.629 506.564C418.056 506.779 418.341 507.424 418.341 507.997ZM417.416 512.798C417.202 513.3 417.06 512.941 417.06 511.938C417.06 510.935 417.202 510.577 417.416 511.007C417.558 511.508 417.558 512.368 417.416 512.798ZM418.341 516.596C418.341 517.169 418.056 517.814 417.629 518.029C417.202 518.315 416.918 517.671 416.918 516.596C416.918 515.521 417.202 514.876 417.629 515.163C418.056 515.378 418.341 516.023 418.341 516.596ZM417.416 521.397C417.202 521.97 416.989 521.755 416.989 520.967C416.918 520.178 417.131 519.749 417.345 520.035C417.558 520.25 417.629 520.895 417.416 521.397ZM419.409 526.269C419.409 528.275 419.124 528.849 417.914 528.992C415.921 529.279 414.498 527.416 415.067 525.123C415.423 523.69 415.921 523.331 417.487 523.546C419.195 523.761 419.409 524.048 419.409 526.269ZM58.7047 536.802C58.4912 537.519 58.3488 536.945 58.3488 535.584C58.3488 534.223 58.4912 533.649 58.7047 534.294C58.847 535.011 58.847 536.157 58.7047 536.802ZM424.035 566.037V582.876H417.629H411.224V566.037V549.198H417.629H424.035V566.037ZM431.864 566.037V582.876H429.017H426.17V566.037V549.198H429.017H431.864V566.037ZM445.387 566.037V582.231L439.479 582.016L433.643 581.801L433.43 565.822L433.216 549.915H439.266H445.387V566.037Z" fill="black" fill-opacity="0.08"/>
<path d="M390.796 190.715C391.437 190.858 392.576 190.858 393.288 190.715C393.928 190.5 393.359 190.356 392.006 190.356C390.654 190.356 390.085 190.5 390.796 190.715Z" fill="black"/>
<path d="M382.115 195.014C382.115 195.802 382.329 195.945 382.542 195.372C383.04 194.011 386.172 194.297 386.528 195.73C386.813 196.733 386.884 196.59 386.955 195.372C387.026 194.011 386.67 193.796 384.535 193.796C382.613 193.796 382.044 194.082 382.115 195.014Z" fill="black"/>
<path d="M382.186 205.977C382.186 207.338 382.328 207.911 382.541 207.195C382.684 206.55 382.684 205.403 382.541 204.687C382.328 204.042 382.186 204.615 382.186 205.977Z" fill="black"/>
<path d="M427.024 566.18L427.237 582.517L427.38 566.754C427.593 555.289 427.878 550.918 428.518 550.488C429.088 550.13 429.017 549.915 428.163 549.915C426.953 549.915 426.881 551.133 427.024 566.18Z" fill="black"/>
</svg>
